<svg width="40" height="40" viewBox="0 0 40 40" fill="none" xmlns="http://www.w3.org/2000/svg">
<path d="M17.3565 10.0002C18.328 9.98992 19.2347 10.4386 19.8295 11.2003L20.7478 12.4212C21.04 12.7864 21.4782 13.0056 21.9478 13.0056H25.1512C29.0017 13.0056 30.8799 15.0612 30.8695 19.2768V24.3586C30.8695 28.3864 28.386 30.8698 24.3478 30.8698H16.5113C12.4939 30.8698 10 28.3864 10 24.3481V16.5116C10 12.1916 11.92 10.0002 15.7078 10.0002H17.3565ZM25.266 22.3029H15.6035C15.1652 22.3029 14.8209 22.6473 14.8209 23.0855C14.8209 23.5133 15.1652 23.8681 15.6035 23.8681H25.266C25.6938 23.8681 26.0382 23.5133 26.0382 23.0855C26.0382 22.6473 25.6938 22.3029 25.266 22.3029Z" fill="white"/>
</svg>
