<svg width="29" height="29" viewBox="0 0 29 29" fill="none" xmlns="http://www.w3.org/2000/svg">
<path d="M10.2225 0.00023917C11.5724 -0.0140133 12.8324 0.609484 13.6589 1.66798L14.9349 3.36447C15.3409 3.87197 15.9499 4.17647 16.6024 4.17647H21.0539C26.4044 4.17647 29.0144 7.03296 28.9999 12.8909V19.9524C28.9999 25.5494 25.5489 29.0004 19.9374 29.0004H9.04796C3.46549 29.0004 0 25.5494 0 19.9379V9.04845C0 3.04547 2.66799 0.00023917 7.93147 0.00023917H10.2225ZM21.2134 17.0959H7.78647C7.17747 17.0959 6.69897 17.5744 6.69897 18.1834C6.69897 18.7779 7.17747 19.2709 7.78647 19.2709H21.2134C21.8079 19.2709 22.2864 18.7779 22.2864 18.1834C22.2864 17.5744 21.8079 17.0959 21.2134 17.0959Z" fill="#7F74FF"/>
</svg>
