<svg width="22" height="22" viewBox="0 0 22 22" fill="none" xmlns="http://www.w3.org/2000/svg">
<g clip-path="url(#clip0_738_58973)">
<path d="M15.6794 14.3445C16.933 12.6338 17.4945 10.513 17.2515 8.40613C17.0085 6.29931 15.979 4.36191 14.3689 2.98155C12.7589 1.60119 10.687 0.879666 8.56774 0.961324C6.44852 1.04298 4.43828 1.9218 2.93919 3.42196C1.4401 4.92212 0.562719 6.93299 0.482578 9.05227C0.402437 11.1715 1.12545 13.2429 2.50696 14.852C3.88847 16.4611 5.8266 17.4892 7.9336 17.7307C10.0406 17.9722 12.1611 17.4092 13.8708 16.1544H13.8695C13.9083 16.2062 13.9498 16.2554 13.9964 16.3033L18.9808 21.2876C19.2235 21.5306 19.5528 21.6671 19.8963 21.6672C20.2397 21.6673 20.5691 21.531 20.812 21.2883C21.055 21.0455 21.1915 20.7162 21.1916 20.3728C21.1917 20.0293 21.0554 19.6999 20.8127 19.457L15.8283 14.4726C15.782 14.4258 15.7322 14.3825 15.6794 14.3432V14.3445ZM16.0134 9.36786C16.0134 10.3029 15.8293 11.2289 15.4714 12.0928C15.1136 12.9567 14.5891 13.7416 13.9279 14.4028C13.2667 15.064 12.4817 15.5885 11.6178 15.9464C10.7539 16.3042 9.82799 16.4884 8.8929 16.4884C7.95782 16.4884 7.0319 16.3042 6.16799 15.9464C5.30409 15.5885 4.51913 15.064 3.85792 14.4028C3.19672 13.7416 2.67223 12.9567 2.31439 12.0928C1.95655 11.2289 1.77237 10.3029 1.77237 9.36786C1.77237 7.47937 2.52257 5.66824 3.85792 4.33288C5.19328 2.99752 7.00442 2.24732 8.8929 2.24732C10.7814 2.24732 12.5925 2.99752 13.9279 4.33288C15.2632 5.66824 16.0134 7.47937 16.0134 9.36786Z" fill="black" fill-opacity="0.7"/>
</g>
<defs>
<clipPath id="clip0_738_58973">
<rect width="20.7143" height="20.7143" fill="white" transform="translate(0.476562 0.953125)"/>
</clipPath>
</defs>
</svg>
