<svg width="15" height="18" viewBox="0 0 15 18" fill="none" xmlns="http://www.w3.org/2000/svg">
<path d="M10.1958 2.25H13.5944C14.2741 2.25 14.7273 2.7 14.7273 3.375V4.5H0V3.375C0 2.7 0.566434 2.25 1.13287 2.25H4.53147C4.75804 1.0125 6.0042 0 7.36364 0C8.72308 0 9.96923 1.0125 10.1958 2.25ZM5.66434 2.25H9.06294C8.83636 1.575 8.04336 1.125 7.36364 1.125C6.68392 1.125 5.89091 1.575 5.66434 2.25ZM1.13287 5.625H13.5944L12.5748 16.9875C12.5748 17.55 12.0084 18 11.442 18H3.28531C2.71888 18 2.26573 17.55 2.15245 16.9875L1.13287 5.625Z" fill="#4F45C0"/>
</svg>
